<svg xmlns="http://www.w3.org/2000/svg" viewBox="0 0 1440 320"><path fill="#000" fill-opacity="1" d="M0,288L26.7,266.7C53.3,245,107,203,160,197.3C213.3,192,267,224,320,240C373.3,256,427,256,480,245.3C533.3,235,587,213,640,202.7C693.3,192,747,192,800,208C853.3,224,907,256,960,272C1013.3,288,1067,288,1120,272C1173.3,256,1227,224,1280,202.7C1333.3,181,1387,171,1413,165.3L1440,160L1440,0L1413.3,0C1386.7,0,1333,0,1280,0C1226.7,0,1173,0,1120,0C1066.7,0,1013,0,960,0C906.7,0,853,0,800,0C746.7,0,693,0,640,0C586.7,0,533,0,480,0C426.7,0,373,0,320,0C266.7,0,213,0,160,0C106.7,0,53,0,27,0L0,0Z"></path></svg>